<svg width="24" height="24" viewBox="0 0 24 24" fill="none" xmlns="http://www.w3.org/2000/svg">
<path d="M15.7136 21.217C16.1336 21.5055 16.2023 22.0323 15.867 22.3936C15.6192 22.6607 15.3325 22.9001 15.0284 23.0965C14.0041 23.7848 12.6994 24.0996 11.4018 23.9723C10.103 23.8451 8.91636 23.2853 8.10439 22.4151C7.76793 22.0545 7.8349 21.5276 8.25395 21.2381C8.673 20.9487 9.28544 21.0063 9.6219 21.3669C10.1116 21.8917 10.8314 22.2313 11.6219 22.3088C12.4136 22.3864 13.2088 22.1945 13.8448 21.7673C14.0324 21.6461 14.2008 21.5054 14.3461 21.3488C14.6814 20.9875 15.2937 20.9285 15.7136 21.217ZM2.30752 8.43046L2.32177 7.7154C2.33285 7.40953 2.35084 7.12559 2.37784 6.84768C2.7839 2.96271 7.13226 0.0154574 11.8888 0.000378738L11.9895 5.81217e-05C16.7435 -0.0150129 21.1189 2.90253 21.5735 6.79211C21.5997 7.03936 21.6115 7.25905 21.6161 7.56803L21.6215 8.5133C21.6229 8.59941 21.625 8.67513 21.6279 8.74574L21.642 8.98118L21.7059 9.20551C21.9073 9.83025 22.2589 10.4138 22.7393 10.9198L22.953 11.1319L23.0405 11.2266C23.6171 11.9532 23.9484 12.7998 23.9993 13.7125L24 14.1964C23.9647 15.2777 23.5023 16.3233 22.6505 17.1961C21.5217 18.2219 19.9888 18.8619 18.3572 18.9947C14.1442 19.3971 9.89187 19.4106 5.68717 19.0359C4.04324 18.9068 2.50929 18.2784 1.32183 17.2207C0.445627 16.3196 -0.0230107 15.1831 0.000869615 14.033L0.000806805 13.7471C0.047364 12.8725 0.369202 12.0247 0.932586 11.2913L1.02696 11.1874C1.68598 10.5686 2.13509 9.81254 2.32782 8.99836L2.30689 9.07149L2.30752 8.43046ZM11.9969 1.67446L11.8962 1.67477C8.08673 1.68686 4.62607 4.03244 4.31668 6.99252C4.30087 7.15516 4.28845 7.32297 4.27893 7.49953L4.25872 8.05927L4.25435 9.1624L4.2348 9.33265C3.97148 10.4451 3.3588 11.4765 2.46178 12.3187L2.53103 12.25L2.40739 12.4253C2.17592 12.783 2.02728 13.171 1.96957 13.5537L1.94589 13.7824L1.94682 14.0448C1.9311 14.809 2.23819 15.5537 2.76696 16.101C3.5821 16.8249 4.6825 17.2756 5.87568 17.3694C9.95408 17.7328 14.0673 17.7197 18.158 17.3292C19.3375 17.2331 20.4331 16.7757 21.1979 16.0829C21.7763 15.4887 22.0801 14.7397 22.0542 13.9524L22.0545 13.7563C22.0222 13.1905 21.8077 12.6424 21.4333 12.1707L21.455 12.2011L21.2595 12.0077C20.5852 11.3057 20.0941 10.4906 19.8188 9.61598L19.7257 9.28535L19.7071 9.17421C19.6926 9.01179 19.684 8.86744 19.679 8.69384L19.6704 7.60831C19.6665 7.33226 19.6569 7.14646 19.6363 6.95173C19.2896 3.98582 15.8052 1.66238 11.9969 1.67446Z" fill="#565656"/>
</svg>
