<svg width="32" height="33" viewBox="0 0 32 33" fill="none" xmlns="http://www.w3.org/2000/svg">
<path d="M2.97298 15.8925C1.47348 19.487 4.07948 23.8254 7.86498 24.586C4.91498 22.605 3.07298 19.4225 2.97298 15.8925Z" fill="black"/>
<path d="M7.865 24.586L7.773 24.5665C7.7845 24.5695 7.812 24.574 7.865 24.586ZM1 22.6305C1.2445 25.6405 5.0195 27.5695 7.7285 26.3365C4.9395 25.7375 3.0895 25.189 1 22.6305ZM23.252 11.897C25.008 8.31299 22.5145 3.87899 18.7245 2.91549C21.624 5.03199 23.344 8.32749 23.252 11.897ZM24.4325 9.42399C26.5285 7.56949 25.6835 3.87999 23.2665 2.67899C24.4315 4.96149 24.842 6.88949 24.4325 9.42399Z" fill="black"/>
<path d="M28.367 10.4377C27.9617 10.1478 27.4654 9.99086 26.9552 9.99134C23.8751 9.99134 23.3228 13.7458 22.6393 15.2114C22.6393 15.2114 19.481 9.02373 18.3824 6.9821C17.2498 4.87607 14.8318 5.31128 14.1234 6.45769C12.441 4.82607 9.2622 6.14329 9.66741 8.12692C7.48577 7.97011 6.60396 9.98414 7.08825 11.2754C5.40201 11.2265 4.61381 13.1782 5.18401 14.5754C5.2135 14.6482 8.20728 20.1619 9.01343 22.0403C9.10705 22.2583 9.20151 22.4915 9.30067 22.7371C9.95253 24.3499 10.8454 26.5588 13.0793 28.3328C14.041 29.0964 15.3725 29.5 16.9309 29.5C19.6776 29.5 22.736 28.2244 24.7227 26.2495C26.5021 24.4811 27.3548 22.3103 27.189 19.9715C27.0402 17.8691 27.7549 15.8882 28.329 14.2962C28.9517 12.5686 29.4433 11.2038 28.367 10.4377ZM25.825 19.9019C26.1726 24.5531 21.1907 28.4776 16.9642 28.4776C15.673 28.4776 14.3354 28.2824 13.4999 27.6188C11.1036 25.7156 10.5022 23.3603 9.80761 21.7451C8.97796 19.8126 6.94164 16.0994 5.95468 14.2314C5.55076 13.4666 6.22568 11.839 7.40113 11.839L10.7911 18.5863L12.0756 19.3079C12.0756 19.3079 9.13397 13.3086 8.20258 11.2409C7.65888 10.0337 8.59583 8.57612 9.85849 8.76612L14.067 17.1726L15.3519 17.8958L10.4466 8.20251C10.4269 6.48449 12.9391 6.45769 13.5229 7.4609C15.0005 10.0001 17.7747 15.5726 17.7747 15.5726L19.0587 16.2954L14.4539 7.1581C15.3532 6.05649 16.9399 6.21089 17.6238 7.5481C18.4453 9.15413 21.9242 16.1298 21.9242 16.1298C18.4897 17.3347 16.1453 20.8271 18.6001 24.2699C16.6522 20.5059 20.1029 17.8458 22.1414 16.9667C22.9129 16.6334 23.1967 16.0034 23.1967 16.0034L23.195 16.0038C23.4638 15.5482 23.448 14.939 23.7686 13.953C24.4632 11.8189 25.416 10.6881 26.8141 10.6881C27.1364 10.6881 27.5425 10.9137 27.7288 11.1709C28.6705 12.4714 25.5019 15.5802 25.825 19.9019Z" fill="black"/>
</svg>
