<svg width="32" height="32" viewBox="0 0 32 32" fill="none" xmlns="http://www.w3.org/2000/svg">
<path d="M8.80002 17.6667H23.2M23.2 20.5734H8.80002M8.80002 23.4734H23.2M4.96669 3.66669C4.61887 3.67539 4.28824 3.81969 4.04535 4.0688C3.80247 4.31792 3.66658 4.6521 3.66669 5.00002V27.0667C3.66669 27.4203 3.80716 27.7594 4.05721 28.0095C4.30726 28.2595 4.6464 28.4 5.00002 28.4H27.0667C27.4203 28.4 27.7594 28.2595 28.0095 28.0095C28.2595 27.7594 28.4 27.4203 28.4 27.0667V4.96669C28.3913 4.61887 28.247 4.28824 27.9979 4.04535C27.7488 3.80247 27.4146 3.66658 27.0667 3.66669C27.0667 3.66669 24.8734 3.73335 23.4 3.74002C23.2268 3.73466 23.0543 3.76415 22.8928 3.82675C22.7312 3.88934 22.5839 3.98376 22.4595 4.10439C22.3352 4.22503 22.2363 4.36942 22.1688 4.529C22.1013 4.68858 22.0666 4.86009 22.0667 5.03335V11.1867C22.0667 11.3635 21.9964 11.5331 21.8714 11.6581C21.7464 11.7831 21.5768 11.8534 21.4 11.8534H10.58C10.4032 11.8534 10.2336 11.7831 10.1086 11.6581C9.98359 11.5331 9.91335 11.3635 9.91335 11.1867V4.96669C9.90572 4.63337 9.77348 4.315 9.54271 4.07436C9.31194 3.83372 8.9994 3.68827 8.66669 3.66669H4.96669ZM18.1934 4.66669C18.0165 4.66669 17.847 4.73693 17.7219 4.86195C17.5969 4.98697 17.5267 5.15654 17.5267 5.33335V9.70669C17.5267 9.8835 17.5969 10.0531 17.7219 10.1781C17.847 10.3031 18.0165 10.3734 18.1934 10.3734H19.12C19.2968 10.3734 19.4664 10.3031 19.5914 10.1781C19.7164 10.0531 19.7867 9.8835 19.7867 9.70669V5.33335C19.7867 5.15654 19.7164 4.98697 19.5914 4.86195C19.4664 4.73693 19.2968 4.66669 19.12 4.66669H18.1934ZM8.36002 14.6134H23.64C23.9821 14.6218 24.3079 14.7615 24.5499 15.0035C24.7919 15.2455 24.9316 15.5712 24.94 15.9134V25.2467C24.94 25.4171 24.9063 25.5858 24.8409 25.7432C24.7755 25.9005 24.6797 26.0434 24.5589 26.1636C24.4381 26.2838 24.2947 26.3789 24.137 26.4435C23.9793 26.5081 23.8104 26.5409 23.64 26.54H8.36002C8.18962 26.5409 8.02072 26.5081 7.86304 26.4435C7.70535 26.3789 7.56199 26.2838 7.44118 26.1636C7.32038 26.0434 7.22452 25.9005 7.1591 25.7432C7.09369 25.5858 7.06002 25.4171 7.06002 25.2467V15.9134C7.06847 15.5712 7.20815 15.2455 7.45014 15.0035C7.69213 14.7615 8.0179 14.6218 8.36002 14.6134Z" stroke="white" stroke-linecap="round" stroke-linejoin="round"/>
</svg>
