<svg width="48" height="49" viewBox="0 0 48 49" fill="none" xmlns="http://www.w3.org/2000/svg">
<rect y="0.506409" width="47.9872" height="47.9872" rx="8" fill="#1B3A89" fill-opacity="0.5"/>
<path d="M24.2198 8.50801C22.1007 8.47803 19.9967 8.86953 18.0302 9.65975C16.0637 10.45 14.2738 11.6232 12.7647 13.1111C11.2555 14.5991 10.0571 16.3722 9.23918 18.3273C8.42122 20.2824 8 22.3807 8 24.5C8 26.6194 8.42122 28.7176 9.23918 30.6727C10.0571 32.6279 11.2555 34.4009 12.7647 35.8889C14.2738 37.3769 16.0637 38.55 18.0302 39.3403C19.9967 40.1305 22.1007 40.522 24.2198 40.492C28.422 40.4326 32.4319 38.7215 35.3825 35.7289C38.3331 32.7363 39.9872 28.7026 39.9872 24.5C39.9872 20.2974 38.3331 16.2637 35.3825 13.2711C32.4319 10.2785 28.422 8.56745 24.2198 8.50801ZM11.4262 24.5016C11.3994 22.8047 11.7104 21.1194 12.3412 19.5439C12.972 17.9684 13.91 16.5341 15.1005 15.3247C16.291 14.1152 17.7103 13.1546 19.2756 12.499C20.841 11.8433 22.5211 11.5057 24.2182 11.5057C25.9153 11.5057 27.5955 11.8433 29.1608 12.499C30.7262 13.1546 32.1454 14.1152 33.3359 15.3247C34.5264 16.5341 35.4644 17.9684 36.0952 19.5439C36.726 21.1194 37.0371 22.8047 37.0102 24.5016C36.9571 27.8592 35.586 31.0613 33.1928 33.417C30.7997 35.7726 27.5763 37.0929 24.2182 37.0929C20.8602 37.0929 17.6368 35.7726 15.2436 33.417C12.8504 31.0613 11.4793 27.8592 11.4262 24.5016ZM30.959 19.3752C31.108 19.5238 31.2262 19.7004 31.3069 19.8948C31.3876 20.0892 31.4291 20.2976 31.4291 20.508C31.4291 20.7185 31.3876 20.9269 31.3069 21.1212C31.2262 21.3156 31.108 21.4922 30.959 21.6408L23.759 28.8408C23.6104 28.9898 23.4338 29.108 23.2395 29.1887C23.0451 29.2694 22.8367 29.3109 22.6262 29.3109C22.4158 29.3109 22.2074 29.2694 22.013 29.1887C21.8186 29.108 21.642 28.9898 21.4934 28.8408L18.2934 25.6408C17.993 25.3404 17.8242 24.9329 17.8242 24.508C17.8242 24.0831 17.993 23.6756 18.2934 23.3752C18.5939 23.0748 19.0013 22.906 19.4262 22.906C19.8511 22.906 20.2586 23.0748 20.559 23.3752L22.6262 25.4456L28.6934 19.3752C28.8421 19.2262 29.0186 19.108 29.213 19.0273C29.4074 18.9467 29.6158 18.9051 29.8262 18.9051C30.0367 18.9051 30.2451 18.9467 30.4395 19.0273C30.6338 19.108 30.8104 19.2262 30.959 19.3752Z" fill="#65F28D"/>
</svg>
