<svg width="33" height="32" viewBox="0 0 33 32" fill="#565656" xmlns="http://www.w3.org/2000/svg">
<path d="M10.7606 1.58227C12.3575 0.366934 14.6022 0.31102 16.2574 1.41892L16.461 1.56206L24.1631 7.37454C25.0105 7.99375 25.5324 8.91623 25.6247 9.92177L25.6382 10.1627L25.6764 19.8843C25.6862 22.39 23.612 24.4355 21.0032 24.5766L18.4936 24.5855C17.2941 24.5669 16.3208 23.6832 16.2281 22.5686L16.2149 22.3996L16.2014 18.972C16.2 18.5992 15.9074 18.2897 15.5175 18.2299L15.4039 18.2184L12.0354 18.2303C11.6332 18.2437 11.3063 18.5206 11.2573 18.8805L11.2451 18.9896L11.2585 22.4064C11.2588 22.4771 11.2452 22.5611 11.2341 22.6211L11.2216 22.6463L11.2081 22.7291C11.062 23.7498 10.1822 24.531 9.08532 24.608L8.92142 24.6194L6.66396 24.6274C4.02818 24.6368 1.8639 22.6795 1.71548 20.2091L1.67639 10.2477C1.68374 9.22739 2.14791 8.27862 2.92724 7.61647L10.7606 1.58227ZM15.3689 2.87271C14.4076 2.14481 13.0454 2.11487 12.039 2.75265L11.8491 2.8852L4.20435 8.78806C3.76541 9.10011 3.50241 9.56862 3.4413 10.0604L3.42817 10.2522L3.46628 19.9631C3.47254 21.5576 4.78925 22.8597 6.45561 22.9497L8.91484 22.941C9.19229 22.94 9.4312 22.7605 9.4668 22.5086L9.49244 22.2927L9.5048 22.2316L9.49212 18.9958C9.48707 17.713 10.5171 16.6663 11.841 16.5645L15.3974 16.5519C16.7455 16.5471 17.8466 17.5275 17.9537 18.786L17.9679 22.3934C17.9689 22.6451 18.1589 22.8615 18.4113 22.9073L20.7558 22.899C22.4457 22.893 23.8155 21.6545 23.9102 20.0824L23.9233 19.8906L23.8853 10.1797C23.8694 9.66545 23.6417 9.1855 23.2494 8.82843L23.0849 8.69594L15.3689 2.87271Z" />
</svg>
