<svg width="25" height="24" viewBox="0 0 25 24" fill="none" xmlns="http://www.w3.org/2000/svg">
<g clip-path="url(#clip0_178_143)">
<path d="M3.23825 12.7421H16.2331C16.6479 12.7421 16.9831 12.4061 16.9831 11.9921C16.9831 11.5781 16.6479 11.2421 16.2331 11.2421H3.28513L5.99825 8.529C6.29112 8.23612 6.29112 7.76137 5.99825 7.4685C5.70537 7.17563 5.23062 7.17563 4.93775 7.4685L0.507874 12.0154L4.93775 16.5623C5.08437 16.7089 5.276 16.782 5.468 16.782C5.66 16.782 5.85162 16.7089 5.99825 16.5623C6.29112 16.2694 6.29112 15.7946 5.99825 15.5018L3.23825 12.7421ZM22.9921 0H10.2421C9.41337 0 8.74212 0.671625 8.74212 1.5V8.25H10.2519V2.41463C10.2519 1.91363 10.6584 1.50713 11.1594 1.50713H22.0513C22.5526 1.50713 22.9587 1.91363 22.9587 2.41463L22.9823 21.5933C22.9823 22.0942 22.5762 22.5007 22.0748 22.5007H11.1597C10.6588 22.5007 10.2523 22.0942 10.2523 21.5933V15.7252L8.7425 15.7271V22.5C8.7425 23.3284 9.41375 24 10.2425 24H22.9921C23.8209 24 24.4925 23.3284 24.4925 22.5V1.5C24.4921 0.671625 23.8205 0 22.9921 0Z" fill="#000000"/>
</g>
<defs>
<clipPath id="clip0_178_143">
<rect width="24" height="24" fill="white" transform="translate(0.5)"/>
</clipPath>
</defs>
</svg>
