<svg width="49" height="48" viewBox="0 0 49 48" fill="none" xmlns="http://www.w3.org/2000/svg">
<rect x="0.125" width="47.9872" height="47.9872" rx="8" fill="#000000" />
<path d="M24.3448 8.0016C22.2257 7.97162 20.1217 8.36312 18.1552 9.15334C16.1887 9.94356 14.3988 11.1167 12.8897 12.6047C11.3805 14.0927 10.1821 15.8658 9.36418 17.8209C8.54622 19.776 8.125 21.8743 8.125 23.9936C8.125 26.1129 8.54622 28.2112 9.36418 30.1663C10.1821 32.1214 11.3805 33.8945 12.8897 35.3825C14.3988 36.8705 16.1887 38.0436 18.1552 38.8339C20.1217 39.6241 22.2257 40.0156 24.3448 39.9856C28.547 39.9262 32.5569 38.2151 35.5075 35.2225C38.4581 32.2299 40.1122 28.1962 40.1122 23.9936C40.1122 19.791 38.4581 15.7573 35.5075 12.7647C32.5569 9.77207 28.547 8.06104 24.3448 8.0016ZM11.5512 23.9952C11.5244 22.2983 11.8354 20.613 12.4662 19.0375C13.097 17.462 14.035 16.0277 15.2255 14.8182C16.416 13.6088 17.8353 12.6482 19.4006 11.9926C20.966 11.3369 22.6461 10.9993 24.3432 10.9993C26.0403 10.9993 27.7205 11.3369 29.2858 11.9926C30.8512 12.6482 32.2704 13.6088 33.4609 14.8182C34.6514 16.0277 35.5894 17.462 36.2202 19.0375C36.851 20.613 37.1621 22.2983 37.1352 23.9952C37.0821 27.3528 35.711 30.5549 33.3178 32.9106C30.9247 35.2662 27.7013 36.5865 24.3432 36.5865C20.9852 36.5865 17.7618 35.2662 15.3686 32.9106C12.9754 30.5549 11.6043 27.3528 11.5512 23.9952ZM31.084 18.8688C31.233 19.0174 31.3512 19.194 31.4319 19.3884C31.5126 19.5828 31.5541 19.7911 31.5541 20.0016C31.5541 20.2121 31.5126 20.4204 31.4319 20.6148C31.3512 20.8092 31.233 20.9858 31.084 21.1344L23.884 28.3344C23.7354 28.4834 23.5588 28.6016 23.3645 28.6823C23.1701 28.7629 22.9617 28.8045 22.7512 28.8045C22.5408 28.8045 22.3324 28.7629 22.138 28.6823C21.9436 28.6016 21.767 28.4834 21.6184 28.3344L18.4184 25.1344C18.118 24.834 17.9492 24.4265 17.9492 24.0016C17.9492 23.5767 18.118 23.1692 18.4184 22.8688C18.7189 22.5684 19.1263 22.3996 19.5512 22.3996C19.9761 22.3996 20.3836 22.5684 20.684 22.8688L22.7512 24.9392L28.8184 18.8688C28.9671 18.7198 29.1436 18.6016 29.338 18.5209C29.5324 18.4403 29.7408 18.3987 29.9512 18.3987C30.1617 18.3987 30.3701 18.4403 30.5645 18.5209C30.7588 18.6016 30.9354 18.7198 31.084 18.8688Z" fill="#63D3EC"/>
</svg>
