<svg width="33" height="32" viewBox="0 0 33 32" fill="#565656" xmlns="http://www.w3.org/2000/svg">
  <path
    d="M27.1667 2.66663H13.8333C12.7725 2.66663 11.7551 3.08805 11.0049 3.8382C10.2548 4.58834 9.83334 5.60576 9.83334 6.66663V16C9.83334 17.0608 10.2548 18.0782 11.0049 18.8284C11.7551 19.5785 12.7725 20 13.8333 20H27.1667C28.2275 20 29.245 19.5785 29.9951 18.8284C30.7453 18.0782 31.1667 17.0608 31.1667 16V6.66663C31.1667 5.60576 30.7453 4.58834 29.9951 3.8382C29.245 3.08805 28.2275 2.66663 27.1667 2.66663ZM28.5 16C28.5 16.3536 28.3595 16.6927 28.1095 16.9428C27.8594 17.1928 27.5203 17.3333 27.1667 17.3333H13.8333C13.4797 17.3333 13.1406 17.1928 12.8905 16.9428C12.6405 16.6927 12.5 16.3536 12.5 16V6.66663C12.5 6.313 12.6405 5.97387 12.8905 5.72382C13.1406 5.47377 13.4797 5.33329 13.8333 5.33329H27.1667C27.5203 5.33329 27.8594 5.47377 28.1095 5.72382C28.3595 5.97387 28.5 6.313 28.5 6.66663V16ZM23.8333 10.6666C23.3397 10.6683 22.8644 10.8537 22.5 11.1866C22.2133 10.926 21.8571 10.7543 21.4746 10.6924C21.0921 10.6304 20.6999 10.6809 20.3456 10.8376C19.9913 10.9944 19.6901 11.2507 19.4787 11.5754C19.2673 11.9001 19.1548 12.2792 19.1548 12.6666C19.1548 13.0541 19.2673 13.4332 19.4787 13.7579C19.6901 14.0826 19.9913 14.3389 20.3456 14.4956C20.6999 14.6524 21.0921 14.7028 21.4746 14.6409C21.8571 14.5789 22.2133 14.4072 22.5 14.1466C22.7408 14.3655 23.0313 14.5223 23.3464 14.6034C23.6615 14.6845 23.9916 14.6876 24.3082 14.6123C24.6247 14.5369 24.9181 14.3855 25.1628 14.1712C25.4076 13.9568 25.5964 13.686 25.7128 13.3822C25.8292 13.0783 25.8697 12.7507 25.8309 12.4276C25.792 12.1046 25.6749 11.7959 25.4897 11.5284C25.3046 11.2608 25.0569 11.0425 24.7683 10.8924C24.4796 10.7422 24.1587 10.6647 23.8333 10.6666ZM21.8333 22.6666C21.4797 22.6666 21.1406 22.8071 20.8905 23.0571C20.6405 23.3072 20.5 23.6463 20.5 24V25.3333C20.5 25.6869 20.3595 26.0261 20.1095 26.2761C19.8594 26.5261 19.5203 26.6666 19.1667 26.6666H5.83334C5.47972 26.6666 5.14058 26.5261 4.89053 26.2761C4.64049 26.0261 4.50001 25.6869 4.50001 25.3333V20H5.83334C6.18697 20 6.5261 19.8595 6.77615 19.6094C7.0262 19.3594 7.16668 19.0202 7.16668 18.6666C7.16668 18.313 7.0262 17.9739 6.77615 17.7238C6.5261 17.4738 6.18697 17.3333 5.83334 17.3333H4.50001V16C4.50001 15.6463 4.64049 15.3072 4.89053 15.0571C5.14058 14.8071 5.47972 14.6666 5.83334 14.6666C6.18697 14.6666 6.5261 14.5261 6.77615 14.2761C7.0262 14.0261 7.16668 13.6869 7.16668 13.3333C7.16668 12.9797 7.0262 12.6405 6.77615 12.3905C6.5261 12.1404 6.18697 12 5.83334 12C4.77248 12 3.75506 12.4214 3.00492 13.1715C2.25477 13.9217 1.83334 14.9391 1.83334 16V25.3333C1.83334 26.3942 2.25477 27.4116 3.00492 28.1617C3.75506 28.9119 4.77248 29.3333 5.83334 29.3333H19.1667C20.2275 29.3333 21.245 28.9119 21.9951 28.1617C22.7453 27.4116 23.1667 26.3942 23.1667 25.3333V24C23.1667 23.6463 23.0262 23.3072 22.7762 23.0571C22.5261 22.8071 22.187 22.6666 21.8333 22.6666ZM8.50001 24H9.83334C10.187 24 10.5261 23.8595 10.7762 23.6094C11.0262 23.3594 11.1667 23.0202 11.1667 22.6666C11.1667 22.313 11.0262 21.9739 10.7762 21.7238C10.5261 21.4738 10.187 21.3333 9.83334 21.3333H8.50001C8.14639 21.3333 7.80725 21.4738 7.5572 21.7238C7.30715 21.9739 7.16668 22.313 7.16668 22.6666C7.16668 23.0202 7.30715 23.3594 7.5572 23.6094C7.80725 23.8595 8.14639 24 8.50001 24Z"/>
</svg>
