<svg width="32" height="32" viewBox="0 0 32 32" fill="#565656" xmlns="http://www.w3.org/2000/svg">
  <path
    d="M16.7286 4.00003C17.6232 3.99651 18.4812 4.33048 19.1071 4.92585C19.733 5.5212 20.0735 6.32727 20.0493 7.08076L20.0608 7.25791C20.0832 7.43233 20.1448 7.6005 20.2443 7.75538C20.4382 8.06078 20.7545 8.28177 21.1235 8.36963C21.4926 8.4575 21.884 8.40502 22.254 8.20156L22.4603 8.10138C24.0096 7.41622 25.873 7.94973 26.7393 9.33846L27.5179 10.5864C27.5384 10.6193 27.5565 10.6533 27.5722 10.6882L27.6445 10.8219C28.3419 12.1952 27.8559 13.8335 26.5446 14.6696L26.2207 14.8608C26.0514 14.9716 25.9105 15.1161 25.8047 15.2895C25.6138 15.5974 25.5625 15.9636 25.6622 16.3069C25.7619 16.6501 26.0044 16.9422 26.3713 17.1381L26.5824 17.2631C27.2204 17.6754 27.6824 18.285 27.8857 18.9847C28.115 19.7742 27.997 20.6164 27.5517 21.3343L26.7245 22.6289L26.5998 22.8115C25.627 24.1249 23.7299 24.5319 22.2779 23.7579L22.1059 23.6761C21.9265 23.6021 21.733 23.5618 21.557 23.5578C21.1742 23.5575 20.8071 23.6997 20.5374 23.9528C20.2678 24.2059 20.1179 24.5489 20.1204 24.9471L20.111 25.1531C19.9771 26.7479 18.5493 27.9883 16.8231 27.9944L15.2644 28C13.4362 28.0063 11.9488 26.6311 11.9442 24.9828L11.9328 24.8056C11.9103 24.6312 11.8487 24.463 11.7442 24.3001C11.5545 23.9939 11.2414 23.771 10.8745 23.6809C10.5075 23.5909 10.1171 23.641 9.73988 23.846L9.51565 23.9513C8.80643 24.2515 8.00533 24.3093 7.25371 24.1131C6.40569 23.8919 5.68734 23.3649 5.2666 22.6634L4.45736 21.3728L4.34958 21.1815C3.61161 19.7441 4.17885 18.0109 5.63265 17.2214L5.76521 17.1434C6.15344 16.8911 6.38519 16.4765 6.38345 16.0341C6.38155 15.5529 6.10427 15.1093 5.62125 14.8508L5.42522 14.7347C4.01544 13.8287 3.57885 12.0615 4.44445 10.6505L5.25878 9.39351C6.16412 7.91715 8.1813 7.4018 9.73752 8.22595L9.90597 8.30884C10.0776 8.38152 10.264 8.41975 10.4432 8.42089C11.2336 8.41815 11.8752 7.82462 11.8842 7.06671L11.894 6.83392C11.9559 6.1131 12.2889 5.43471 12.8356 4.91913C13.4524 4.33743 14.2926 4.00867 15.1702 4.00555L16.7286 4.00003ZM16.7358 5.7369L15.1771 5.74242C14.7955 5.7438 14.4301 5.88674 14.1619 6.13966C13.9243 6.3638 13.7795 6.65879 13.7549 6.93387L13.7394 7.29971C13.6151 8.89503 12.1896 10.1518 10.4402 10.1578C9.98929 10.155 9.54435 10.0637 9.09027 9.87014L8.84707 9.75175C8.15406 9.38504 7.27308 9.6101 6.86646 10.2727L6.05212 11.5297C5.6791 12.1379 5.86988 12.9102 6.45261 13.2855L6.78234 13.4784C7.69054 14.0459 8.24388 14.9992 8.24792 16.0275C8.25191 17.0407 7.72136 17.9897 6.80016 18.5876L6.60402 18.7034C5.9583 19.0544 5.71153 19.8084 6.01461 20.4004L6.08615 20.528L6.88511 21.8011C7.07276 22.1138 7.38649 22.344 7.75686 22.4406C8.08512 22.5263 8.43502 22.501 8.70759 22.3866L8.84453 22.3235C9.60016 21.9092 10.5021 21.7933 11.3499 22.0014C12.1977 22.2095 12.921 22.7245 13.3516 23.4199C13.5832 23.7804 13.7304 24.182 13.7886 24.6441L13.8157 25.0682C13.8968 25.7426 14.5124 26.2657 15.2575 26.263L16.8162 26.2575C17.5699 26.2548 18.1939 25.7128 18.2501 25.0513L18.2567 24.9205C18.2492 24.1003 18.594 23.3114 19.2142 22.7293C19.8345 22.1471 20.6788 21.8201 21.5796 21.8212C22.0216 21.8306 22.457 21.9213 22.9024 22.1062L23.3018 22.2945C23.9286 22.5481 24.6701 22.3588 25.0443 21.8546L25.1353 21.7211L25.9434 20.456C26.1343 20.1481 26.1856 19.7819 26.0859 19.4387C25.9976 19.1344 25.7967 18.8694 25.5537 18.7113L25.2093 18.5102C24.5508 18.0989 24.0709 17.4785 23.8624 16.7608C23.6331 15.9713 23.7511 15.1291 24.1869 14.4264C24.4254 14.0351 24.754 13.6982 25.1831 13.4183L25.3854 13.2986C26.0301 12.9443 26.2767 12.1904 25.9758 11.5961L25.886 11.4363L25.8698 11.4027L25.1272 10.2114C24.776 9.64834 24.0489 9.4071 23.4334 9.60194L23.2936 9.65467L23.1637 9.71692C22.4105 10.1338 21.5103 10.2545 20.6616 10.0524C19.8129 9.85035 19.0853 9.34208 18.642 8.64362C18.4104 8.28317 18.2632 7.88153 18.205 7.41948L18.1872 7.11716C18.197 6.7533 18.0483 6.40125 17.7749 6.14123C17.5016 5.88122 17.1268 5.73553 16.7358 5.7369ZM15.987 12.0791C18.3115 12.0708 20.2028 13.8196 20.2113 15.985C20.2198 18.1505 18.3423 19.9126 16.0177 19.9209C13.6932 19.9291 11.8019 18.1803 11.7934 16.0149C11.7849 13.8494 13.6624 12.0873 15.987 12.0791ZM15.9938 13.8159C14.699 13.8205 13.6532 14.8021 13.6579 16.0083C13.6626 17.2145 14.7161 18.1886 16.0109 18.184C17.3057 18.1794 18.3515 17.1978 18.3468 15.9916C18.3421 14.7854 17.2886 13.8113 15.9938 13.8159Z"/>
</svg>
